<svg version="1.1" id="Layer_1" xmlns="http://www.w3.org/2000/svg" xmlns:xlink="http://www.w3.org/1999/xlink" x="0px" y="0px"
	 width="100%" viewBox="0 0 90 90" enable-background="new 0 0 90 90" xml:space="preserve">
<path fill="#000000" opacity="1.000000" stroke="none" 
	d="
M55.000000,91.000000 
	C36.666668,91.000000 18.833340,91.000000 1.000007,91.000000 
	C1.000005,61.000008 1.000005,31.000017 1.000002,1.000019 
	C30.999987,1.000013 60.999973,1.000013 90.999969,1.000006 
	C90.999985,30.999979 90.999985,60.999958 90.999992,90.999969 
	C79.166664,91.000000 67.333336,91.000000 55.000000,91.000000 
M53.788681,81.665100 
	C55.194241,81.278030 56.610664,80.926323 58.003651,80.498322 
	C69.690765,76.907379 83.196854,63.621811 82.186699,43.860268 
	C81.045830,21.541647 60.752319,4.854394 36.815475,10.869823 
	C18.497969,15.473089 10.167412,28.101246 9.941611,47.176811 
	C9.791186,59.884727 15.760587,68.904182 25.520212,76.264473 
	C33.865536,82.558159 43.342152,82.261276 53.788681,81.665100 
z"/>
<path fill="#0066CC" opacity="1.000000" stroke="none" 
	d="
M53.361401,81.799034 
	C43.342152,82.261276 33.865536,82.558159 25.520212,76.264473 
	C15.760587,68.904182 9.791186,59.884727 9.941611,47.176811 
	C10.167412,28.101246 18.497969,15.473089 36.815475,10.869823 
	C60.752319,4.854394 81.045830,21.541647 82.186699,43.860268 
	C83.196854,63.621811 69.690765,76.907379 58.003651,80.498322 
	C56.610664,80.926323 55.194241,81.278030 53.361401,81.799034 
M35.051437,60.484592 
	C51.289822,55.679733 57.508045,42.127586 63.370617,28.147528 
	C54.555962,34.547020 42.154530,35.561638 36.719765,46.734200 
	C33.982861,52.360619 30.813181,57.776520 27.839201,63.287613 
	C28.137558,63.577324 28.435915,63.867031 28.734272,64.156738 
	C30.659306,63.102524 32.584339,62.048306 35.051437,60.484592 
z"/>
<path fill="#000000" opacity="1.000000" stroke="none" 
	d="
M34.780403,60.739342 
	C32.584339,62.048306 30.659306,63.102524 28.734272,64.156738 
	C28.435915,63.867031 28.137558,63.577324 27.839201,63.287613 
	C30.813181,57.776520 33.982861,52.360619 36.719765,46.734200 
	C42.154530,35.561638 54.555962,34.547020 63.370617,28.147528 
	C57.508045,42.127586 51.289822,55.679733 34.780403,60.739342 
M48.965816,47.320114 
	C48.874466,45.923733 48.783115,44.527355 48.679234,42.939438 
	C46.545910,43.064697 44.952404,43.158260 43.350395,43.252323 
	C43.350395,45.303127 43.350395,47.016407 43.350395,49.317863 
	C45.467083,48.886738 47.147202,48.544533 48.965816,47.320114 
z"/>
<path fill="#0064CD" opacity="1.000000" stroke="none" 
	d="
M48.896568,47.761223 
	C47.147202,48.544533 45.467083,48.886738 43.350395,49.317863 
	C43.350395,47.016407 43.350395,45.303127 43.350395,43.252323 
	C44.952404,43.158260 46.545910,43.064697 48.679234,42.939438 
	C48.783115,44.527355 48.874466,45.923733 48.896568,47.761223 
z"/>
</svg>